<?xml version="1.0" encoding="utf-8"?>
<!-- Generator: Adobe Illustrator 16.0.2, SVG Export Plug-In . SVG Version: 6.00 Build 0)  -->
<!DOCTYPE svg PUBLIC "-//W3C//DTD SVG 1.1//EN" "http://www.w3.org/Graphics/SVG/1.1/DTD/svg11.dtd">
<svg version="1.1" xmlns="http://www.w3.org/2000/svg" xmlns:xlink="http://www.w3.org/1999/xlink" x="0px" y="0px" width="375px"
	 height="375px" viewBox="0 0 375 375" enable-background="new 0 0 375 375" xml:space="preserve">
<g id="Ebene_2">
</g>
<g id="Ebene_1">
	<path fill="none" d="M187.979,143.983"/>
	<linearGradient id="SVGID_1_" gradientUnits="userSpaceOnUse" x1="55.5688" y1="189.4375" x2="334.3887" y2="189.4375">
		<stop  offset="0" style="stop-color:#BDBEC0"/>
		<stop  offset="0.9557" style="stop-color:#707173"/>
	</linearGradient>
	<polygon fill="url(#SVGID_1_)" points="55.569,222.863 64.763,214.17 75.674,205.943 89.98,194.555 105.74,184.861 124.41,174.922 
		141.141,167.406 165.145,160.375 182.603,157.153 196.909,156.012 208.809,156.254 217.519,156.012 230.612,156.981 
		242.978,158.921 261.163,163.527 280.075,171.045 293.653,176.621 308.444,185.836 321.053,193.836 328.084,199.656 
		334.389,205.475 332.934,207.172 317.416,206.93 308.687,201.27 296.078,193.109 288.562,188.818 277.893,183.652 262.86,177.592 
		248.554,172.984 229.642,168.619 218.003,167.166 208.809,166.438 201.516,165.953 191.817,166.195 184.785,166.68 
		175.329,167.408 165.145,169.348 156.417,171.287 146.475,173.955 136.534,177.348 122.713,182.926 107.195,189.957 87.798,201.27 
		75.917,209.111 	"/>
	<text transform="matrix(1 0 0 1 101.1011 171.2988)"><tspan x="0" y="0" fill="#003679" font-family="'Autobahn'" font-size="72">NERD</tspan><tspan x="-82.799" y="86.4" fill="#003679" font-family="'Autobahn'" font-size="72">AKADEMIE</tspan></text>
</g>
</svg>
