<?xml version="1.0" encoding="utf-8"?>
<!-- Generator: Adobe Illustrator 16.0.2, SVG Export Plug-In . SVG Version: 6.00 Build 0)  -->
<!DOCTYPE svg PUBLIC "-//W3C//DTD SVG 1.1//EN" "http://www.w3.org/Graphics/SVG/1.1/DTD/svg11.dtd">
<svg version="1.1" id="Ebene_1" xmlns="http://www.w3.org/2000/svg" xmlns:xlink="http://www.w3.org/1999/xlink" x="0px" y="0px"
	 width="593.42px" height="101.551px" viewBox="0 0 593.42 101.551" enable-background="new 0 0 593.42 101.551"
	 xml:space="preserve">
<path fill="none" d="M0,69.035"/>
<linearGradient id="SVGID_1_" gradientUnits="userSpaceOnUse" x1="136.1045" y1="33.4253" x2="414.9243" y2="33.4253">
	<stop  offset="0" style="stop-color:#BDBEC0"/>
	<stop  offset="0.9557" style="stop-color:#707173"/>
</linearGradient>
<polygon fill="url(#SVGID_1_)" points="136.104,66.851 145.298,58.158 156.21,49.931 170.516,38.543 186.276,28.849 204.946,18.911 
	221.676,11.395 245.681,4.364 263.139,1.142 277.444,0 289.345,0.242 298.054,0 311.147,0.97 323.513,2.91 341.698,7.517 
	360.611,15.033 374.189,20.61 388.98,29.824 401.588,37.825 408.62,43.644 414.924,49.464 413.469,51.161 397.952,50.918 
	389.222,45.259 376.614,37.098 369.097,32.807 358.429,27.642 343.396,21.58 329.09,16.973 310.177,12.608 298.539,11.154 
	289.345,10.426 282.051,9.941 272.353,10.184 265.321,10.668 255.865,11.396 245.681,13.336 236.952,15.275 227.011,17.943 
	217.069,21.337 203.249,26.914 187.731,33.945 168.333,45.259 156.453,53.101 "/>
<text transform="matrix(1 0 0 1 82.2275 94.3511)" fill="#003679" font-family="'Autobahn'" font-size="72">NERDAKADEMIE</text>
</svg>
